{"title":"Toy Story 3.2010.TS.FEEL-FREE","uid":5640973,"size":944801446,"categoryP":"video","categoryS":"movies","magnet":"?xt=urn:btih:c78e4db254759f2a938b8a489269186566f593f5&amp;dn=Toy+Story+3.2010.TS.FEEL-FREE&amp;tr=udp%3A%2F%2Ftracker.openbittorrent.com%3A80&amp;tr=udp%3A%2F%2Fopen.demonii.com%3A1337&amp;tr=udp%3A%2F%2Ftracker.coppersurfer.tk%3A6969&amp;tr=udp%3A%2F%2Fexodus.desync.com%3A6969","seeders":1,"leechers":0,"uploader":"hiest","files":9,"time":1277106003,"description":"Genre:Animation | Adventure | Comedy | Family | Fantasy\nLanguage: English\nIMDb:http://www.imdb.com/title/tt0435761/\nSource Video:Relizlab.Thanks\nSource Audio:Ice/Prism.Thanks\nEncoder: Tony2\n...........................................\nGeneral\nComplete name : Toy Story 3.2010.TS.FEEL-FREE\nFormat : AVI\nFormat/Info : Audio Video Interleave\nFile size : 900 MiB\nDuration : 1h 34mn\nOverall bit rate : 1 338 Kbps\n...........................................\nVideo\nFormat : xvid\nCodec ID : xvid\nDuration : 1h 34mn\nBit rate : 1 200 Kbps\nWidth : 704 pixels\nHeight : 304 pixels\nDisplay aspect ratio : 2.35:1\nFrame rate : 25.000 fps\nResolution : 24 bits\nBits/(Pixel*Frame) : 0.224\nStream size : 808 MiB (90%)\n.............................................\nAudio\nID : 1\nFormat : MPEG Audio\nFormat version : Version 1\nFormat profile : Layer 3\nCodec ID : 55\nCodec ID/Hint : MP3\nDuration : 1h 34mn\nBit rate mode : Constant\nBit rate : 128 Kbps\nChannel(s) : 2 channels\nSampling rate : 48.0 KHz\nResolution : 16 bits\nStream size : 86.2 MiB (10%)\nAlignment : Aligned on interleaves\nInterleave, duration : 40 ms (1.00 video frame)\nInterleave, preload duration : 504 ms\n.............................................\nPlot:\nWoody, Buzz, and the rest of their toy-box friends are dumped in a day-care center after their owner, Andy, departs for college.\n...................................................\nScreenshots\n &lt;a href=&quot;\nhttp://postimg.com/image/17000/16720.jpg&quot; rel=&quot;nofollow&quot; target=&quot;_NEW&quot;&gt;\nhttp://postimg.com/image/17000/16720.jpg&lt;/a&gt;\n &lt;a href=&quot;\nhttp://postimg.com/image/17000/16721.jpg&quot; rel=&quot;nofollow&quot; target=&quot;_NEW&quot;&gt;\nhttp://postimg.com/image/17000/16721.jpg&lt;/a&gt;","torrent":{"xt":"urn:btih:c78e4db254759f2a938b8a489269186566f593f5","amp;dn":"Toy+Story+3.2010.TS.FEEL-FREE","amp;tr":["udp%3A%2F%2Ftracker.openbittorrent.com%3A80","udp%3A%2F%2Fopen.demonii.com%3A1337","udp%3A%2F%2Ftracker.coppersurfer.tk%3A6969","udp%3A%2F%2Fexodus.desync.com%3A6969"],"infoHash":"c78e4db254759f2a938b8a489269186566f593f5","infoHashBuffer":{"type":"Buffer","data":[199,142,77,178,84,117,159,42,147,139,138,72,146,105,24,101,102,245,147,245]},"announce":[],"urlList":[]}}